<?xml version="1.0" encoding="UTF-8"?>
<svg width="448px" height="33px" viewBox="0 0 448 33" version="1.1" xmlns="http://www.w3.org/2000/svg" xmlns:xlink="http://www.w3.org/1999/xlink">
    <!-- Generator: Sketch 54.1 (76490) - https://sketchapp.com -->
    <title>VertcoinFoundation</title>
    <desc>Created with Sketch.</desc>
    <g id="Page-1" stroke="none" stroke-width="1" fill="none" fill-rule="evenodd">
        <g id="Group-27" transform="translate(-415.000000, -403.000000)" fill="#FFFFFF" fill-rule="nonzero">
            <path d="M415.4325,404.9 L422.7425,404.9 L430.6115,426.099 L438.4805,404.9 L445.6185,404.9 L433.4495,435.215 L427.6015,435.215 L415.4325,404.9 Z M464.7105,421.67 C464.509832,420.207993 463.993837,419.025505 463.1625,418.1225 C462.331163,417.219495 461.227507,416.768 459.8515,416.768 C458.475493,416.768 457.364671,417.212329 456.519,418.101 C455.673329,418.989671 455.121501,420.179326 454.8635,421.67 L464.7105,421.67 Z M460.4965,435.516 C458.776491,435.516 457.178341,435.229336 455.702,434.656 C454.225659,434.082664 452.950005,433.265672 451.875,432.205 C450.799995,431.144328 449.961503,429.890174 449.3595,428.4425 C448.757497,426.994826 448.4565,425.382342 448.4565,423.605 L448.4565,423.519 C448.4565,421.884992 448.735997,420.337007 449.295,418.875 C449.854003,417.412993 450.635162,416.137339 451.6385,415.048 C452.641838,413.958661 453.83866,413.09867 455.229,412.468 C456.61934,411.83733 458.160158,411.522 459.8515,411.522 C461.772176,411.522 463.434826,411.865997 464.8395,412.554 C466.244174,413.242003 467.412329,414.166494 468.344,415.3275 C469.275671,416.488506 469.963664,417.821492 470.408,419.3265 C470.852336,420.831508 471.0745,422.400992 471.0745,424.035 C471.0745,424.293001 471.067333,424.565332 471.053,424.852 C471.038667,425.138668 471.017167,425.439665 470.9885,425.755 L454.9495,425.755 C455.264835,427.245674 455.916995,428.37083 456.906,429.1305 C457.895005,429.89017 459.120493,430.27 460.5825,430.27 C461.671839,430.27 462.646496,430.083669 463.5065,429.711 C464.366504,429.338331 465.255162,428.736337 466.1725,427.905 L469.9135,431.216 C468.824161,432.56334 467.505508,433.61683 465.9575,434.3765 C464.409492,435.13617 462.589177,435.516 460.4965,435.516 Z M475.9335,411.952 L482.4695,411.952 L482.4695,416.596 C483.128837,415.019325 484.031828,413.758005 485.1785,412.812 C486.325172,411.865995 487.873157,411.436 489.8225,411.522 L489.8225,418.359 L489.4785,418.359 C487.299822,418.359 485.587006,419.018327 484.34,420.337 C483.092994,421.655673 482.4695,423.705319 482.4695,426.486 L482.4695,435 L475.9335,435 L475.9335,411.952 Z M501.6905,435.387 C500.687162,435.387 499.777004,435.279501 498.96,435.0645 C498.142996,434.849499 497.44067,434.469669 496.853,433.925 C496.26533,433.380331 495.806668,432.670838 495.477,431.7965 C495.147332,430.922162 494.9825,429.81134 494.9825,428.464 L494.9825,417.542 L492.2305,417.542 L492.2305,411.952 L494.9825,411.952 L494.9825,406.061 L501.5185,406.061 L501.5185,411.952 L506.9365,411.952 L506.9365,417.542 L501.5185,417.542 L501.5185,427.389 C501.5185,428.879674 502.220826,429.625 503.6255,429.625 C504.772172,429.625 505.847162,429.352669 506.8505,428.808 L506.8505,434.054 C506.162497,434.455335 505.402837,434.777832 504.5715,435.0215 C503.740163,435.265168 502.779839,435.387 501.6905,435.387 Z M522.6315,435.516 C520.911491,435.516 519.313341,435.20067 517.837,434.57 C516.360659,433.93933 515.092172,433.086505 514.0315,432.0115 C512.970828,430.936495 512.139503,429.675174 511.5375,428.2275 C510.935497,426.779826 510.6345,425.239008 510.6345,423.605 L510.6345,423.519 C510.6345,421.884992 510.935497,420.337007 511.5375,418.875 C512.139503,417.412993 512.970828,416.137339 514.0315,415.048 C515.092172,413.958661 516.360659,413.09867 517.837,412.468 C519.313341,411.83733 520.940158,411.522 522.7175,411.522 C524.896178,411.522 526.702159,411.865997 528.1355,412.554 C529.56884,413.242003 530.830161,414.187994 531.9195,415.392 L527.9205,419.692 C527.175163,418.917996 526.408337,418.301669 525.62,417.843 C524.831663,417.384331 523.849839,417.155 522.6745,417.155 C521.843163,417.155 521.09067,417.319832 520.417,417.6495 C519.74333,417.979168 519.155669,418.430664 518.654,419.004 C518.152331,419.577336 517.765335,420.24383 517.493,421.0035 C517.220665,421.76317 517.0845,422.572996 517.0845,423.433 L517.0845,423.519 C517.0845,424.407671 517.220665,425.238996 517.493,426.013 C517.765335,426.787004 518.159497,427.460664 518.6755,428.034 C519.191503,428.607336 519.80783,429.058832 520.5245,429.3885 C521.24117,429.718168 522.043829,429.883 522.9325,429.883 C524.021839,429.883 524.974996,429.660836 525.792,429.2165 C526.609004,428.772164 527.418829,428.177337 528.2215,427.432 L532.0485,431.302 C530.930494,432.534673 529.65484,433.545163 528.2215,434.3335 C526.78816,435.121837 524.924845,435.516 522.6315,435.516 Z M547.7005,429.883 C548.646505,429.883 549.484996,429.718168 550.216,429.3885 C550.947004,429.058832 551.570497,428.607336 552.0865,428.034 C552.602503,427.460664 552.996665,426.79417 553.269,426.0345 C553.541335,425.27483 553.6775,424.465004 553.6775,423.605 L553.6775,423.519 C553.6775,422.658996 553.534168,421.84917 553.2475,421.0895 C552.960832,420.32983 552.545169,419.65617 552.0005,419.0685 C551.455831,418.48083 550.810837,418.015002 550.0655,417.671 C549.320163,417.326998 548.503171,417.155 547.6145,417.155 C546.668495,417.155 545.830004,417.319832 545.099,417.6495 C544.367996,417.979168 543.744503,418.430664 543.2285,419.004 C542.712497,419.577336 542.318335,420.24383 542.046,421.0035 C541.773665,421.76317 541.6375,422.572996 541.6375,423.433 L541.6375,423.519 C541.6375,424.379004 541.780832,425.18883 542.0675,425.9485 C542.354168,426.70817 542.769831,427.38183 543.3145,427.9695 C543.859169,428.55717 544.496996,429.022998 545.228,429.367 C545.959004,429.711002 546.783162,429.883 547.7005,429.883 Z M547.6145,435.516 C545.837158,435.516 544.188841,435.207836 542.6695,434.5915 C541.150159,433.975164 539.838672,433.129505 538.735,432.0545 C537.631328,430.979495 536.76417,429.718174 536.1335,428.2705 C535.50283,426.822826 535.1875,425.267675 535.1875,423.605 L535.1875,423.519 C535.1875,421.856325 535.50283,420.301174 536.1335,418.8535 C536.76417,417.405826 537.638494,416.137339 538.7565,415.048 C539.874506,413.958661 541.193159,413.09867 542.7125,412.468 C544.231841,411.83733 545.894491,411.522 547.7005,411.522 C549.477842,411.522 551.126159,411.830164 552.6455,412.4465 C554.164841,413.062836 555.476328,413.908495 556.58,414.9835 C557.683672,416.058505 558.55083,417.319826 559.1815,418.7675 C559.81217,420.215174 560.1275,421.770325 560.1275,423.433 L560.1275,423.519 C560.1275,425.181675 559.81217,426.736826 559.1815,428.1845 C558.55083,429.632174 557.676506,430.900661 556.5585,431.99 C555.440494,433.079339 554.121841,433.93933 552.6025,434.57 C551.083159,435.20067 549.420509,435.516 547.6145,435.516 Z M565.1585,411.952 L571.6945,411.952 L571.6945,435 L565.1585,435 L565.1585,411.952 Z M564.9865,403.61 L571.8665,403.61 L571.8665,409.415 L564.9865,409.415 L564.9865,403.61 Z M577.8435,411.952 L584.3795,411.952 L584.3795,415.22 C584.752169,414.732664 585.160664,414.266836 585.605,413.8225 C586.049336,413.378164 586.543831,412.984002 587.0885,412.64 C587.633169,412.295998 588.235163,412.023668 588.8945,411.823 C589.553837,411.622332 590.299163,411.522 591.1305,411.522 C593.624512,411.522 595.552327,412.281659 596.914,413.801 C598.275673,415.320341 598.9565,417.412987 598.9565,420.079 L598.9565,435 L592.4205,435 L592.4205,422.143 C592.4205,420.594992 592.076503,419.426837 591.3885,418.6385 C590.700497,417.850163 589.72584,417.456 588.4645,417.456 C587.20316,417.456 586.207004,417.850163 585.476,418.6385 C584.744996,419.426837 584.3795,420.594992 584.3795,422.143 L584.3795,435 L577.8435,435 L577.8435,411.952 Z M618.2205,404.9 L641.1395,404.9 L641.1395,410.92 L624.8425,410.92 L624.8425,417.327 L639.2045,417.327 L639.2045,423.347 L624.8425,423.347 L624.8425,435 L618.2205,435 L618.2205,404.9 Z M657.1355,429.883 C658.081505,429.883 658.919996,429.718168 659.651,429.3885 C660.382004,429.058832 661.005497,428.607336 661.5215,428.034 C662.037503,427.460664 662.431665,426.79417 662.704,426.0345 C662.976335,425.27483 663.1125,424.465004 663.1125,423.605 L663.1125,423.519 C663.1125,422.658996 662.969168,421.84917 662.6825,421.0895 C662.395832,420.32983 661.980169,419.65617 661.4355,419.0685 C660.890831,418.48083 660.245837,418.015002 659.5005,417.671 C658.755163,417.326998 657.938171,417.155 657.0495,417.155 C656.103495,417.155 655.265004,417.319832 654.534,417.6495 C653.802996,417.979168 653.179503,418.430664 652.6635,419.004 C652.147497,419.577336 651.753335,420.24383 651.481,421.0035 C651.208665,421.76317 651.0725,422.572996 651.0725,423.433 L651.0725,423.519 C651.0725,424.379004 651.215832,425.18883 651.5025,425.9485 C651.789168,426.70817 652.204831,427.38183 652.7495,427.9695 C653.294169,428.55717 653.931996,429.022998 654.663,429.367 C655.394004,429.711002 656.218162,429.883 657.1355,429.883 Z M657.0495,435.516 C655.272158,435.516 653.623841,435.207836 652.1045,434.5915 C650.585159,433.975164 649.273672,433.129505 648.17,432.0545 C647.066328,430.979495 646.19917,429.718174 645.5685,428.2705 C644.93783,426.822826 644.6225,425.267675 644.6225,423.605 L644.6225,423.519 C644.6225,421.856325 644.93783,420.301174 645.5685,418.8535 C646.19917,417.405826 647.073494,416.137339 648.1915,415.048 C649.309506,413.958661 650.628159,413.09867 652.1475,412.468 C653.666841,411.83733 655.329491,411.522 657.1355,411.522 C658.912842,411.522 660.561159,411.830164 662.0805,412.4465 C663.599841,413.062836 664.911328,413.908495 666.015,414.9835 C667.118672,416.058505 667.98583,417.319826 668.6165,418.7675 C669.24717,420.215174 669.5625,421.770325 669.5625,423.433 L669.5625,423.519 C669.5625,425.181675 669.24717,426.736826 668.6165,428.1845 C667.98583,429.632174 667.111506,430.900661 665.9935,431.99 C664.875494,433.079339 663.556841,433.93933 662.0375,434.57 C660.518159,435.20067 658.855509,435.516 657.0495,435.516 Z M681.9465,435.43 C679.452488,435.43 677.524673,434.670341 676.163,433.151 C674.801327,431.631659 674.1205,429.539013 674.1205,426.873 L674.1205,411.952 L680.6565,411.952 L680.6565,424.809 C680.6565,426.357008 681.000497,427.525163 681.6885,428.3135 C682.376503,429.101837 683.35116,429.496 684.6125,429.496 C685.87384,429.496 686.869996,429.101837 687.601,428.3135 C688.332004,427.525163 688.6975,426.357008 688.6975,424.809 L688.6975,411.952 L695.2335,411.952 L695.2335,435 L688.6975,435 L688.6975,431.732 C688.324831,432.219336 687.916336,432.685164 687.472,433.1295 C687.027664,433.573836 686.533169,433.967998 685.9885,434.312 C685.443831,434.656002 684.841837,434.928332 684.1825,435.129 C683.523163,435.329668 682.777837,435.43 681.9465,435.43 Z M701.0815,411.952 L707.6175,411.952 L707.6175,415.22 C707.990169,414.732664 708.398664,414.266836 708.843,413.8225 C709.287336,413.378164 709.781831,412.984002 710.3265,412.64 C710.871169,412.295998 711.473163,412.023668 712.1325,411.823 C712.791837,411.622332 713.537163,411.522 714.3685,411.522 C716.862512,411.522 718.790327,412.281659 720.152,413.801 C721.513673,415.320341 722.1945,417.412987 722.1945,420.079 L722.1945,435 L715.6585,435 L715.6585,422.143 C715.6585,420.594992 715.314503,419.426837 714.6265,418.6385 C713.938497,417.850163 712.96384,417.456 711.7025,417.456 C710.44116,417.456 709.445004,417.850163 708.714,418.6385 C707.982996,419.426837 707.6175,420.594992 707.6175,422.143 L707.6175,435 L701.0815,435 L701.0815,411.952 Z M739.0075,429.883 C739.781504,429.883 740.50533,429.732502 741.179,429.4315 C741.85267,429.130498 742.440331,428.700503 742.942,428.1415 C743.443669,427.582497 743.844998,426.908837 744.146,426.1205 C744.447002,425.332163 744.5975,424.465005 744.5975,423.519 L744.5975,423.433 C744.5975,422.486995 744.447002,421.619837 744.146,420.8315 C743.844998,420.043163 743.443669,419.369503 742.942,418.8105 C742.440331,418.251497 741.85267,417.821502 741.179,417.5205 C740.50533,417.219498 739.781504,417.069 739.0075,417.069 C738.233496,417.069 737.50967,417.219498 736.836,417.5205 C736.16233,417.821502 735.567503,418.251497 735.0515,418.8105 C734.535497,419.369503 734.127002,420.035996 733.826,420.81 C733.524998,421.584004 733.3745,422.458328 733.3745,423.433 L733.3745,423.519 C733.3745,424.465005 733.524998,425.332163 733.826,426.1205 C734.127002,426.908837 734.535497,427.582497 735.0515,428.1415 C735.567503,428.700503 736.16233,429.130498 736.836,429.4315 C737.50967,429.732502 738.233496,429.883 739.0075,429.883 Z M737.3305,435.43 C735.98316,435.43 734.67884,435.172003 733.4175,434.656 C732.15616,434.139997 731.038172,433.373172 730.0635,432.3555 C729.088828,431.337828 728.30767,430.090841 727.72,428.6145 C727.13233,427.138159 726.8385,425.439676 726.8385,423.519 L726.8385,423.433 C726.8385,421.512324 727.13233,419.813841 727.72,418.3375 C728.30767,416.861159 729.081662,415.614172 730.042,414.5965 C731.002338,413.578828 732.11316,412.812003 733.3745,412.296 C734.63584,411.779997 735.954493,411.522 737.3305,411.522 C739.079175,411.522 740.519661,411.865997 741.652,412.554 C742.784339,413.242003 743.737496,414.044662 744.5115,414.962 L744.5115,403.61 L751.0475,403.61 L751.0475,435 L744.5115,435 L744.5115,431.689 C743.708829,432.778339 742.741339,433.674163 741.609,434.3765 C740.476661,435.078837 739.050509,435.43 737.3305,435.43 Z M765.4095,430.915 C766.957508,430.915 768.197329,430.542337 769.129,429.797 C770.060671,429.051663 770.5265,428.077006 770.5265,426.873 L770.5265,425.712 C769.953164,425.453999 769.315337,425.246167 768.613,425.0885 C767.910663,424.930833 767.158171,424.852 766.3555,424.852 C764.950826,424.852 763.847171,425.124331 763.0445,425.669 C762.241829,426.213669 761.8405,427.001995 761.8405,428.034 L761.8405,428.12 C761.8405,429.008671 762.170163,429.696664 762.8295,430.184 C763.488837,430.671336 764.348828,430.915 765.4095,430.915 Z M763.4315,435.43 C762.342161,435.43 761.317338,435.279502 760.357,434.9785 C759.396662,434.677498 758.55817,434.226003 757.8415,433.624 C757.12483,433.021997 756.558669,432.283838 756.143,431.4095 C755.727331,430.535162 755.5195,429.524672 755.5195,428.378 L755.5195,428.292 C755.5195,427.03066 755.748831,425.941338 756.2075,425.024 C756.666169,424.106662 757.303996,423.347003 758.121,422.745 C758.938004,422.142997 759.912661,421.691502 761.045,421.3905 C762.177339,421.089498 763.431493,420.939 764.8075,420.939 C765.982839,420.939 767.007662,421.024999 767.882,421.197 C768.756338,421.369001 769.609163,421.598332 770.4405,421.885 L770.4405,421.498 C770.4405,420.121993 770.024837,419.07567 769.1935,418.359 C768.362163,417.64233 767.129508,417.284 765.4955,417.284 C764.23416,417.284 763.123338,417.391499 762.163,417.6065 C761.202662,417.821501 760.192172,418.129665 759.1315,418.531 L757.4975,413.543 C758.75884,412.998331 760.077493,412.554002 761.4535,412.21 C762.829507,411.865998 764.492157,411.694 766.4415,411.694 C768.247509,411.694 769.788327,411.916164 771.064,412.3605 C772.339673,412.804836 773.393163,413.442663 774.2245,414.274 C775.084504,415.134004 775.715165,416.187494 776.1165,417.4345 C776.517835,418.681506 776.7185,420.078992 776.7185,421.627 L776.7185,435 L770.3975,435 L770.3975,432.506 C769.594829,433.394671 768.634506,434.104164 767.5165,434.6345 C766.398494,435.164836 765.036841,435.43 763.4315,435.43 Z M790.1345,435.387 C789.131162,435.387 788.221004,435.279501 787.404,435.0645 C786.586996,434.849499 785.88467,434.469669 785.297,433.925 C784.70933,433.380331 784.250668,432.670838 783.921,431.7965 C783.591332,430.922162 783.4265,429.81134 783.4265,428.464 L783.4265,417.542 L780.6745,417.542 L780.6745,411.952 L783.4265,411.952 L783.4265,406.061 L789.9625,406.061 L789.9625,411.952 L795.3805,411.952 L795.3805,417.542 L789.9625,417.542 L789.9625,427.389 C789.9625,428.879674 790.664826,429.625 792.0695,429.625 C793.216172,429.625 794.291162,429.352669 795.2945,428.808 L795.2945,434.054 C794.606497,434.455335 793.846837,434.777832 793.0155,435.0215 C792.184163,435.265168 791.223839,435.387 790.1345,435.387 Z M800.4975,411.952 L807.0335,411.952 L807.0335,435 L800.4975,435 L800.4975,411.952 Z M800.3255,403.61 L807.2055,403.61 L807.2055,409.415 L800.3255,409.415 L800.3255,403.61 Z M824.5775,429.883 C825.523505,429.883 826.361996,429.718168 827.093,429.3885 C827.824004,429.058832 828.447497,428.607336 828.9635,428.034 C829.479503,427.460664 829.873665,426.79417 830.146,426.0345 C830.418335,425.27483 830.5545,424.465004 830.5545,423.605 L830.5545,423.519 C830.5545,422.658996 830.411168,421.84917 830.1245,421.0895 C829.837832,420.32983 829.422169,419.65617 828.8775,419.0685 C828.332831,418.48083 827.687837,418.015002 826.9425,417.671 C826.197163,417.326998 825.380171,417.155 824.4915,417.155 C823.545495,417.155 822.707004,417.319832 821.976,417.6495 C821.244996,417.979168 820.621503,418.430664 820.1055,419.004 C819.589497,419.577336 819.195335,420.24383 818.923,421.0035 C818.650665,421.76317 818.5145,422.572996 818.5145,423.433 L818.5145,423.519 C818.5145,424.379004 818.657832,425.18883 818.9445,425.9485 C819.231168,426.70817 819.646831,427.38183 820.1915,427.9695 C820.736169,428.55717 821.373996,429.022998 822.105,429.367 C822.836004,429.711002 823.660162,429.883 824.5775,429.883 Z M824.4915,435.516 C822.714158,435.516 821.065841,435.207836 819.5465,434.5915 C818.027159,433.975164 816.715672,433.129505 815.612,432.0545 C814.508328,430.979495 813.64117,429.718174 813.0105,428.2705 C812.37983,426.822826 812.0645,425.267675 812.0645,423.605 L812.0645,423.519 C812.0645,421.856325 812.37983,420.301174 813.0105,418.8535 C813.64117,417.405826 814.515494,416.137339 815.6335,415.048 C816.751506,413.958661 818.070159,413.09867 819.5895,412.468 C821.108841,411.83733 822.771491,411.522 824.5775,411.522 C826.354842,411.522 828.003159,411.830164 829.5225,412.4465 C831.041841,413.062836 832.353328,413.908495 833.457,414.9835 C834.560672,416.058505 835.42783,417.319826 836.0585,418.7675 C836.68917,420.215174 837.0045,421.770325 837.0045,423.433 L837.0045,423.519 C837.0045,425.181675 836.68917,426.736826 836.0585,428.1845 C835.42783,429.632174 834.553506,430.900661 833.4355,431.99 C832.317494,433.079339 830.998841,433.93933 829.4795,434.57 C827.960159,435.20067 826.297509,435.516 824.4915,435.516 Z M841.7345,411.952 L848.2705,411.952 L848.2705,415.22 C848.643169,414.732664 849.051664,414.266836 849.496,413.8225 C849.940336,413.378164 850.434831,412.984002 850.9795,412.64 C851.524169,412.295998 852.126163,412.023668 852.7855,411.823 C853.444837,411.622332 854.190163,411.522 855.0215,411.522 C857.515512,411.522 859.443327,412.281659 860.805,413.801 C862.166673,415.320341 862.8475,417.412987 862.8475,420.079 L862.8475,435 L856.3115,435 L856.3115,422.143 C856.3115,420.594992 855.967503,419.426837 855.2795,418.6385 C854.591497,417.850163 853.61684,417.456 852.3555,417.456 C851.09416,417.456 850.098004,417.850163 849.367,418.6385 C848.635996,419.426837 848.2705,420.594992 848.2705,422.143 L848.2705,435 L841.7345,435 L841.7345,411.952 Z" id="VertcoinFoundation"></path>
        </g>
    </g>
</svg>