<?xml version="1.0" encoding="UTF-8"?>
<svg width="583px" height="42px" viewBox="0 0 583 42" version="1.1" xmlns="http://www.w3.org/2000/svg" xmlns:xlink="http://www.w3.org/1999/xlink">
    <!-- Generator: Sketch 51.3 (57544) - http://www.bohemiancoding.com/sketch -->
    <title>Vertcoin Foundation</title>
    <desc>Created with Sketch.</desc>
    <defs></defs>
    <g id="Mobile-Wallet" stroke="none" stroke-width="1" fill="none" fill-rule="evenodd">
        <path d="M0,1.68 L9.52,1.68 L19.768,29.288 L30.016,1.68 L39.312,1.68 L23.464,41.16 L15.848,41.16 L0,1.68 Z M64.176,23.52 C63.9146654,21.6159905 63.2426721,20.0760059 62.16,18.9 C61.0773279,17.7239941 59.640009,17.136 57.848,17.136 C56.055991,17.136 54.6093388,17.7146609 53.508,18.872 C52.4066612,20.0293391 51.6880017,21.578657 51.352,23.52 L64.176,23.52 Z M58.688,41.552 C56.4479888,41.552 54.3666763,41.1786704 52.444,40.432 C50.5213237,39.6853296 48.860007,38.6213402 47.46,37.24 C46.059993,35.8586598 44.9680039,34.2253428 44.184,32.34 C43.3999961,30.4546572 43.008,28.3546782 43.008,26.04 L43.008,25.928 C43.008,23.7999894 43.3719964,21.7840095 44.1,19.88 C44.8280036,17.9759905 45.8453268,16.3146738 47.152,14.896 C48.4586732,13.4773262 50.0173243,12.3573374 51.828,11.536 C53.6386757,10.7146626 55.6453223,10.304 57.848,10.304 C60.3493458,10.304 62.5146575,10.7519955 64.344,11.648 C66.1733425,12.5440045 67.6946606,13.7479924 68.908,15.26 C70.1213394,16.7720076 71.0173304,18.5079902 71.596,20.468 C72.1746696,22.4280098 72.464,24.4719894 72.464,26.6 C72.464,26.9360017 72.4546668,27.2906648 72.436,27.664 C72.4173332,28.0373352 72.3893335,28.4293313 72.352,28.84 L51.464,28.84 C51.8746687,30.781343 52.7239936,32.2466617 54.012,33.236 C55.3000064,34.2253383 56.8959905,34.72 58.8,34.72 C60.2186738,34.72 61.4879944,34.4773358 62.608,33.992 C63.7280056,33.5066642 64.8853274,32.7226721 66.08,31.64 L70.952,35.952 C69.5333262,37.7066754 67.8160101,39.0786617 65.8,40.068 C63.7839899,41.0573383 61.413347,41.552 58.688,41.552 Z M78.792,10.864 L87.304,10.864 L87.304,16.912 C88.162671,14.8586564 89.3386592,13.2160062 90.832,11.984 C92.3253408,10.7519938 94.3413206,10.1919994 96.88,10.304 L96.88,19.208 L96.432,19.208 C93.5946525,19.208 91.3640081,20.0666581 89.74,21.784 C88.1159919,23.5013419 87.304,26.1706486 87.304,29.792 L87.304,40.88 L78.792,40.88 L78.792,10.864 Z M112.336,41.384 C111.029327,41.384 109.844005,41.2440014 108.78,40.964 C107.715995,40.6839986 106.801337,40.1893369 106.036,39.48 C105.270663,38.7706631 104.673335,37.8466724 104.244,36.708 C103.814665,35.5693276 103.6,34.1226754 103.6,32.368 L103.6,18.144 L100.016,18.144 L100.016,10.864 L103.6,10.864 L103.6,3.192 L112.112,3.192 L112.112,10.864 L119.168,10.864 L119.168,18.144 L112.112,18.144 L112.112,30.968 C112.112,32.909343 113.026658,33.88 114.856,33.88 C116.349341,33.88 117.749327,33.5253369 119.056,32.816 L119.056,39.648 C118.159996,40.1706693 117.170672,40.5906651 116.088,40.908 C115.005328,41.2253349 113.754674,41.384 112.336,41.384 Z M139.608,41.552 C137.367989,41.552 135.286676,41.1413374 133.364,40.32 C131.441324,39.4986626 129.78934,38.388007 128.408,36.988 C127.02666,35.587993 125.944004,33.9453428 125.16,32.06 C124.375996,30.1746572 123.984,28.1680106 123.984,26.04 L123.984,25.928 C123.984,23.7999894 124.375996,21.7840095 125.16,19.88 C125.944004,17.9759905 127.02666,16.3146738 128.408,14.896 C129.78934,13.4773262 131.441324,12.3573374 133.364,11.536 C135.286676,10.7146626 137.405322,10.304 139.72,10.304 C142.557348,10.304 144.909324,10.7519955 146.776,11.648 C148.642676,12.5440045 150.285326,13.7759922 151.704,15.344 L146.496,20.944 C145.525328,19.935995 144.526672,19.1333363 143.5,18.536 C142.473328,17.9386637 141.194674,17.64 139.664,17.64 C138.581328,17.64 137.601338,17.8546645 136.724,18.284 C135.846662,18.7133355 135.081337,19.3013296 134.428,20.048 C133.774663,20.7946704 133.270668,21.6626617 132.916,22.652 C132.561332,23.6413383 132.384,24.6959944 132.384,25.816 L132.384,25.928 C132.384,27.0853391 132.561332,28.167995 132.916,29.176 C133.270668,30.184005 133.783997,31.0613296 134.456,31.808 C135.128003,32.5546704 135.930662,33.1426645 136.864,33.572 C137.797338,34.0013355 138.842661,34.216 140,34.216 C141.418674,34.216 142.659995,33.9266696 143.724,33.348 C144.788005,32.7693304 145.842661,31.9946715 146.888,31.024 L151.872,36.064 C150.415993,37.6693414 148.754676,38.9853282 146.888,40.012 C145.021324,41.0386718 142.594682,41.552 139.608,41.552 Z M172.256,34.216 C173.488006,34.216 174.579995,34.0013355 175.532,33.572 C176.484005,33.1426645 177.295997,32.5546704 177.968,31.808 C178.640003,31.0613296 179.153332,30.1933383 179.508,29.204 C179.862668,28.2146617 180.04,27.1600056 180.04,26.04 L180.04,25.928 C180.04,24.8079944 179.853335,23.7533383 179.48,22.764 C179.106665,21.7746617 178.565337,20.8973372 177.856,20.132 C177.146663,19.3666628 176.306672,18.7600022 175.336,18.312 C174.365328,17.8639978 173.301339,17.64 172.144,17.64 C170.911994,17.64 169.820005,17.8546645 168.868,18.284 C167.915995,18.7133355 167.104003,19.3013296 166.432,20.048 C165.759997,20.7946704 165.246668,21.6626617 164.892,22.652 C164.537332,23.6413383 164.36,24.6959944 164.36,25.816 L164.36,25.928 C164.36,27.0480056 164.546665,28.1026617 164.92,29.092 C165.293335,30.0813383 165.834663,30.9586628 166.544,31.724 C167.253337,32.4893372 168.083995,33.0959978 169.036,33.544 C169.988005,33.9920022 171.061327,34.216 172.256,34.216 Z M172.144,41.552 C169.829322,41.552 167.682677,41.1506707 165.704,40.348 C163.725323,39.5453293 162.017341,38.444007 160.58,37.044 C159.142659,35.643993 158.013337,34.0013428 157.192,32.116 C156.370663,30.2306572 155.96,28.2053442 155.96,26.04 L155.96,25.928 C155.96,23.7626558 156.370663,21.7373428 157.192,19.852 C158.013337,17.9666572 159.151993,16.3146738 160.608,14.896 C162.064007,13.4773262 163.781323,12.3573374 165.76,11.536 C167.738677,10.7146626 169.903988,10.304 172.256,10.304 C174.570678,10.304 176.717323,10.7053293 178.696,11.508 C180.674677,12.3106707 182.382659,13.411993 183.82,14.812 C185.257341,16.212007 186.386663,17.8546572 187.208,19.74 C188.029337,21.6253428 188.44,23.6506558 188.44,25.816 L188.44,25.928 C188.44,28.0933442 188.029337,30.1186572 187.208,32.004 C186.386663,33.8893428 185.248007,35.5413262 183.792,36.96 C182.335993,38.3786738 180.618677,39.4986626 178.64,40.32 C176.661323,41.1413374 174.496012,41.552 172.144,41.552 Z M194.992,10.864 L203.504,10.864 L203.504,40.88 L194.992,40.88 L194.992,10.864 Z M194.768,0 L203.728,0 L203.728,7.56 L194.768,7.56 L194.768,0 Z M211.512,10.864 L220.024,10.864 L220.024,15.12 C220.509336,14.4853302 221.04133,13.8786696 221.62,13.3 C222.19867,12.7213304 222.842663,12.2080022 223.552,11.76 C224.261337,11.3119978 225.045329,10.9573346 225.904,10.696 C226.762671,10.4346654 227.733328,10.304 228.816,10.304 C232.064016,10.304 234.574658,11.2933234 236.348,13.272 C238.121342,15.2506766 239.008,17.9759826 239.008,21.448 L239.008,40.88 L230.496,40.88 L230.496,24.136 C230.496,22.1199899 230.048004,20.5986718 229.152,19.572 C228.255996,18.5453282 226.986675,18.032 225.344,18.032 C223.701325,18.032 222.404005,18.5453282 221.452,19.572 C220.499995,20.5986718 220.024,22.1199899 220.024,24.136 L220.024,40.88 L211.512,40.88 L211.512,10.864 Z M264.096,1.68 L293.944,1.68 L293.944,9.52 L272.72,9.52 L272.72,17.864 L291.424,17.864 L291.424,25.704 L272.72,25.704 L272.72,40.88 L264.096,40.88 L264.096,1.68 Z M314.776,34.216 C316.008006,34.216 317.099995,34.0013355 318.052,33.572 C319.004005,33.1426645 319.815997,32.5546704 320.488,31.808 C321.160003,31.0613296 321.673332,30.1933383 322.028,29.204 C322.382668,28.2146617 322.56,27.1600056 322.56,26.04 L322.56,25.928 C322.56,24.8079944 322.373335,23.7533383 322,22.764 C321.626665,21.7746617 321.085337,20.8973372 320.376,20.132 C319.666663,19.3666628 318.826672,18.7600022 317.856,18.312 C316.885328,17.8639978 315.821339,17.64 314.664,17.64 C313.431994,17.64 312.340005,17.8546645 311.388,18.284 C310.435995,18.7133355 309.624003,19.3013296 308.952,20.048 C308.279997,20.7946704 307.766668,21.6626617 307.412,22.652 C307.057332,23.6413383 306.88,24.6959944 306.88,25.816 L306.88,25.928 C306.88,27.0480056 307.066665,28.1026617 307.44,29.092 C307.813335,30.0813383 308.354663,30.9586628 309.064,31.724 C309.773337,32.4893372 310.603995,33.0959978 311.556,33.544 C312.508005,33.9920022 313.581327,34.216 314.776,34.216 Z M314.664,41.552 C312.349322,41.552 310.202677,41.1506707 308.224,40.348 C306.245323,39.5453293 304.537341,38.444007 303.1,37.044 C301.662659,35.643993 300.533337,34.0013428 299.712,32.116 C298.890663,30.2306572 298.48,28.2053442 298.48,26.04 L298.48,25.928 C298.48,23.7626558 298.890663,21.7373428 299.712,19.852 C300.533337,17.9666572 301.671993,16.3146738 303.128,14.896 C304.584007,13.4773262 306.301323,12.3573374 308.28,11.536 C310.258677,10.7146626 312.423988,10.304 314.776,10.304 C317.090678,10.304 319.237323,10.7053293 321.216,11.508 C323.194677,12.3106707 324.902659,13.411993 326.34,14.812 C327.777341,16.212007 328.906663,17.8546572 329.728,19.74 C330.549337,21.6253428 330.96,23.6506558 330.96,25.816 L330.96,25.928 C330.96,28.0933442 330.549337,30.1186572 329.728,32.004 C328.906663,33.8893428 327.768007,35.5413262 326.312,36.96 C324.855993,38.3786738 323.138677,39.4986626 321.16,40.32 C319.181323,41.1413374 317.016012,41.552 314.664,41.552 Z M347.088,41.44 C343.839984,41.44 341.329342,40.4506766 339.556,38.472 C337.782658,36.4933234 336.896,33.7680174 336.896,30.296 L336.896,10.864 L345.408,10.864 L345.408,27.608 C345.408,29.6240101 345.855996,31.1453282 346.752,32.172 C347.648004,33.1986718 348.917325,33.712 350.56,33.712 C352.202675,33.712 353.499995,33.1986718 354.452,32.172 C355.404005,31.1453282 355.88,29.6240101 355.88,27.608 L355.88,10.864 L364.392,10.864 L364.392,40.88 L355.88,40.88 L355.88,36.624 C355.394664,37.2586698 354.86267,37.8653304 354.284,38.444 C353.70533,39.0226696 353.061337,39.5359978 352.352,39.984 C351.642663,40.4320022 350.858671,40.7866654 350,41.048 C349.141329,41.3093346 348.170672,41.44 347.088,41.44 Z M372.008,10.864 L380.52,10.864 L380.52,15.12 C381.005336,14.4853302 381.53733,13.8786696 382.116,13.3 C382.69467,12.7213304 383.338663,12.2080022 384.048,11.76 C384.757337,11.3119978 385.541329,10.9573346 386.4,10.696 C387.258671,10.4346654 388.229328,10.304 389.312,10.304 C392.560016,10.304 395.070658,11.2933234 396.844,13.272 C398.617342,15.2506766 399.504,17.9759826 399.504,21.448 L399.504,40.88 L390.992,40.88 L390.992,24.136 C390.992,22.1199899 390.544004,20.5986718 389.648,19.572 C388.751996,18.5453282 387.482675,18.032 385.84,18.032 C384.197325,18.032 382.900005,18.5453282 381.948,19.572 C380.995995,20.5986718 380.52,22.1199899 380.52,24.136 L380.52,40.88 L372.008,40.88 L372.008,10.864 Z M421.4,34.216 C422.408005,34.216 423.350662,34.020002 424.228,33.628 C425.105338,33.235998 425.870663,32.6760036 426.524,31.948 C427.177337,31.2199964 427.699998,30.3426718 428.092,29.316 C428.484002,28.2893282 428.68,27.1600062 428.68,25.928 L428.68,25.816 C428.68,24.5839938 428.484002,23.4546718 428.092,22.428 C427.699998,21.4013282 427.177337,20.5240036 426.524,19.796 C425.870663,19.0679964 425.105338,18.508002 424.228,18.116 C423.350662,17.723998 422.408005,17.528 421.4,17.528 C420.391995,17.528 419.449338,17.723998 418.572,18.116 C417.694662,18.508002 416.920003,19.0679964 416.248,19.796 C415.575997,20.5240036 415.044002,21.391995 414.652,22.4 C414.259998,23.408005 414.064,24.5466603 414.064,25.816 L414.064,25.928 C414.064,27.1600062 414.259998,28.2893282 414.652,29.316 C415.044002,30.3426718 415.575997,31.2199964 416.248,31.948 C416.920003,32.6760036 417.694662,33.235998 418.572,33.628 C419.449338,34.020002 420.391995,34.216 421.4,34.216 Z M419.216,41.44 C417.461325,41.44 415.762675,41.1040034 414.12,40.432 C412.477325,39.7599966 411.02134,38.76134 409.752,37.436 C408.48266,36.11066 407.465337,34.4866763 406.7,32.564 C405.934663,30.6413237 405.552,28.4293458 405.552,25.928 L405.552,25.816 C405.552,23.3146542 405.934663,21.1026763 406.7,19.18 C407.465337,17.2573237 408.473327,15.63334 409.724,14.308 C410.974673,12.98266 412.421325,11.9840034 414.064,11.312 C415.706675,10.6399966 417.423991,10.304 419.216,10.304 C421.493345,10.304 423.369326,10.7519955 424.844,11.648 C426.318674,12.5440045 427.559995,13.5893274 428.568,14.784 L428.568,0 L437.08,0 L437.08,40.88 L428.568,40.88 L428.568,36.568 C427.522661,37.9866738 426.262674,39.1533288 424.788,40.068 C423.313326,40.9826712 421.456011,41.44 419.216,41.44 Z M455.784,35.56 C457.80001,35.56 459.414661,35.0746715 460.628,34.104 C461.841339,33.1333285 462.448,31.8640078 462.448,30.296 L462.448,28.784 C461.70133,28.4479983 460.870671,28.1773344 459.956,27.972 C459.041329,27.7666656 458.061339,27.664 457.016,27.664 C455.186658,27.664 453.749339,28.0186631 452.704,28.728 C451.658661,29.4373369 451.136,30.4639933 451.136,31.808 L451.136,31.92 C451.136,33.0773391 451.565329,33.9733302 452.424,34.608 C453.282671,35.2426698 454.40266,35.56 455.784,35.56 Z M453.208,41.44 C451.789326,41.44 450.454673,41.244002 449.204,40.852 C447.953327,40.459998 446.861338,39.8720039 445.928,39.088 C444.994662,38.3039961 444.257336,37.3426724 443.716,36.204 C443.174664,35.0653276 442.904,33.7493408 442.904,32.256 L442.904,32.144 C442.904,30.5013251 443.202664,29.0826726 443.8,27.888 C444.397336,26.6933274 445.227995,25.7040039 446.292,24.92 C447.356005,24.1359961 448.625326,23.548002 450.1,23.156 C451.574674,22.763998 453.207991,22.568 455,22.568 C456.530674,22.568 457.865328,22.6799989 459.004,22.904 C460.142672,23.1280011 461.253328,23.4266648 462.336,23.8 L462.336,23.296 C462.336,21.503991 461.794672,20.141338 460.712,19.208 C459.629328,18.274662 458.024011,17.808 455.896,17.808 C454.253325,17.808 452.806673,17.9479986 451.556,18.228 C450.305327,18.5080014 448.98934,18.9093307 447.608,19.432 L445.48,12.936 C447.122675,12.2266631 448.839991,11.6480022 450.632,11.2 C452.424009,10.7519978 454.589321,10.528 457.128,10.528 C459.480012,10.528 461.486658,10.8173304 463.148,11.396 C464.809342,11.9746696 466.181328,12.8053279 467.264,13.888 C468.384006,15.0080056 469.205331,16.3799919 469.728,18.004 C470.250669,19.6280081 470.512,21.4479899 470.512,23.464 L470.512,40.88 L462.28,40.88 L462.28,37.632 C461.234661,38.7893391 459.984007,39.7133299 458.528,40.404 C457.071993,41.0946701 455.298677,41.44 453.208,41.44 Z M487.984,41.384 C486.677327,41.384 485.492005,41.2440014 484.428,40.964 C483.363995,40.6839986 482.449337,40.1893369 481.684,39.48 C480.918663,38.7706631 480.321335,37.8466724 479.892,36.708 C479.462665,35.5693276 479.248,34.1226754 479.248,32.368 L479.248,18.144 L475.664,18.144 L475.664,10.864 L479.248,10.864 L479.248,3.192 L487.76,3.192 L487.76,10.864 L494.816,10.864 L494.816,18.144 L487.76,18.144 L487.76,30.968 C487.76,32.909343 488.674658,33.88 490.504,33.88 C491.997341,33.88 493.397327,33.5253369 494.704,32.816 L494.704,39.648 C493.807996,40.1706693 492.818672,40.5906651 491.736,40.908 C490.653328,41.2253349 489.402674,41.384 487.984,41.384 Z M501.48,10.864 L509.992,10.864 L509.992,40.88 L501.48,40.88 L501.48,10.864 Z M501.256,0 L510.216,0 L510.216,7.56 L501.256,7.56 L501.256,0 Z M532.84,34.216 C534.072006,34.216 535.163995,34.0013355 536.116,33.572 C537.068005,33.1426645 537.879997,32.5546704 538.552,31.808 C539.224003,31.0613296 539.737332,30.1933383 540.092,29.204 C540.446668,28.2146617 540.624,27.1600056 540.624,26.04 L540.624,25.928 C540.624,24.8079944 540.437335,23.7533383 540.064,22.764 C539.690665,21.7746617 539.149337,20.8973372 538.44,20.132 C537.730663,19.3666628 536.890672,18.7600022 535.92,18.312 C534.949328,17.8639978 533.885339,17.64 532.728,17.64 C531.495994,17.64 530.404005,17.8546645 529.452,18.284 C528.499995,18.7133355 527.688003,19.3013296 527.016,20.048 C526.343997,20.7946704 525.830668,21.6626617 525.476,22.652 C525.121332,23.6413383 524.944,24.6959944 524.944,25.816 L524.944,25.928 C524.944,27.0480056 525.130665,28.1026617 525.504,29.092 C525.877335,30.0813383 526.418663,30.9586628 527.128,31.724 C527.837337,32.4893372 528.667995,33.0959978 529.62,33.544 C530.572005,33.9920022 531.645327,34.216 532.84,34.216 Z M532.728,41.552 C530.413322,41.552 528.266677,41.1506707 526.288,40.348 C524.309323,39.5453293 522.601341,38.444007 521.164,37.044 C519.726659,35.643993 518.597337,34.0013428 517.776,32.116 C516.954663,30.2306572 516.544,28.2053442 516.544,26.04 L516.544,25.928 C516.544,23.7626558 516.954663,21.7373428 517.776,19.852 C518.597337,17.9666572 519.735993,16.3146738 521.192,14.896 C522.648007,13.4773262 524.365323,12.3573374 526.344,11.536 C528.322677,10.7146626 530.487988,10.304 532.84,10.304 C535.154678,10.304 537.301323,10.7053293 539.28,11.508 C541.258677,12.3106707 542.966659,13.411993 544.404,14.812 C545.841341,16.212007 546.970663,17.8546572 547.792,19.74 C548.613337,21.6253428 549.024,23.6506558 549.024,25.816 L549.024,25.928 C549.024,28.0933442 548.613337,30.1186572 547.792,32.004 C546.970663,33.8893428 545.832007,35.5413262 544.376,36.96 C542.919993,38.3786738 541.202677,39.4986626 539.224,40.32 C537.245323,41.1413374 535.080012,41.552 532.728,41.552 Z M555.184,10.864 L563.696,10.864 L563.696,15.12 C564.181336,14.4853302 564.71333,13.8786696 565.292,13.3 C565.87067,12.7213304 566.514663,12.2080022 567.224,11.76 C567.933337,11.3119978 568.717329,10.9573346 569.576,10.696 C570.434671,10.4346654 571.405328,10.304 572.488,10.304 C575.736016,10.304 578.246658,11.2933234 580.02,13.272 C581.793342,15.2506766 582.68,17.9759826 582.68,21.448 L582.68,40.88 L574.168,40.88 L574.168,24.136 C574.168,22.1199899 573.720004,20.5986718 572.824,19.572 C571.927996,18.5453282 570.658675,18.032 569.016,18.032 C567.373325,18.032 566.076005,18.5453282 565.124,19.572 C564.171995,20.5986718 563.696,22.1199899 563.696,24.136 L563.696,40.88 L555.184,40.88 L555.184,10.864 Z" id="Vertcoin-Foundation" fill="#000000"></path>
    </g>
</svg>